<?xml version="1.0" standalone="no"?>
<!DOCTYPE svg PUBLIC "-//W3C//DTD SVG 20010904//EN"
 "http://www.w3.org/TR/2001/REC-SVG-20010904/DTD/svg10.dtd">
<svg version="1.0" xmlns="http://www.w3.org/2000/svg"
 width="178.000000pt" height="178.000000pt" viewBox="0 0 178.000000 178.000000"
 preserveAspectRatio="xMidYMid meet">
<metadata>
Created by potrace 1.15, written by Peter Selinger 2001-2017
</metadata>
<g transform="translate(0.000000,178.000000) scale(0.100000,-0.100000)"
fill="#000000" stroke="none">
<path d="M136 1765 c-49 -17 -93 -59 -117 -110 -18 -38 -19 -80 -19 -765 0
-684 1 -727 19 -766 22 -49 78 -97 130 -113 51 -15 1429 -16 1484 0 49 13 105
63 128 114 17 38 19 85 19 765 0 684 -1 727 -19 766 -22 48 -82 101 -131 114
-21 6 -314 10 -745 10 -577 -1 -717 -3 -749 -15z m332 -137 l3 -58 409 0 410
0 0 60 0 60 55 0 c39 0 57 -4 61 -14 3 -8 18 -18 34 -21 16 -3 31 -12 34 -20
2 -7 17 -15 33 -17 l28 -3 0 -100 0 -100 -27 3 c-19 2 -28 -3 -33 -18 -4 -14
-15 -20 -36 -20 -18 0 -29 -5 -29 -14 0 -8 -7 -17 -16 -20 -27 -10 -92 -7
-100 6 -4 6 -6 37 -5 70 l2 58 -30 0 -31 0 0 -140 0 -139 -102 -116 -103 -117
-6 -171 c-5 -134 -3 -174 7 -180 7 -4 41 -62 76 -130 l63 -122 -5 -133 c-4
-117 -7 -135 -24 -148 -28 -20 -60 -17 -82 7 -16 18 -18 35 -16 139 l3 118
-52 94 -52 93 -56 -1 -56 -2 -53 -93 -53 -94 6 -93 c7 -102 -4 -155 -35 -172
-28 -15 -48 -12 -70 10 -18 18 -20 33 -20 161 0 121 3 145 19 167 10 15 37 65
61 110 24 46 48 86 54 88 7 3 11 60 11 173 l0 168 -107 122 -108 122 0 139 0
140 -30 0 c-29 0 -29 0 -32 -67 l-3 -68 -53 -3 c-47 -3 -54 -1 -59 17 -4 15
-13 21 -35 21 -22 0 -31 6 -35 21 -4 16 -11 19 -29 15 -31 -8 -38 6 -40 94 -2
83 7 110 36 110 11 0 29 9 40 20 11 11 29 20 39 20 10 0 22 7 25 16 4 11 18
14 58 12 l53 -3 3 -57z"/>
<path d="M630 1356 l0 -123 70 -79 c39 -44 75 -80 80 -82 5 -2 22 4 39 12 16
9 44 16 61 16 17 0 45 -7 61 -16 17 -8 35 -14 40 -12 5 2 40 39 79 83 l70 80
0 122 0 123 -250 0 -250 0 0 -124z m326 39 c117 -76 55 -255 -88 -255 -43 0
-54 5 -89 38 -132 122 27 316 177 217z"/>
</g>
</svg>
